<?xml version="1.0" encoding="UTF-8" standalone="no"?>
<!-- Created with Inkscape (http://www.inkscape.org/) -->

<svg
   xmlns:dc="http://purl.org/dc/elements/1.1/"
   xmlns:cc="http://creativecommons.org/ns#"
   xmlns:rdf="http://www.w3.org/1999/02/22-rdf-syntax-ns#"
   xmlns:svg="http://www.w3.org/2000/svg"
   xmlns="http://www.w3.org/2000/svg"
   xmlns:sodipodi="http://sodipodi.sourceforge.net/DTD/sodipodi-0.dtd"
   xmlns:inkscape="http://www.inkscape.org/namespaces/inkscape"
   width="210mm"
   height="297mm"
   viewBox="0 0 210 297"
   version="1.1"
   id="svg8"
   inkscape:version="0.92.3 (2405546, 2018-03-11)"
   sodipodi:docname="separator.svg">
  <defs
     id="defs2" />
  <sodipodi:namedview
     id="base"
     pagecolor="#ffffff"
     bordercolor="#666666"
     borderopacity="1.0"
     inkscape:pageopacity="0.0"
     inkscape:pageshadow="2"
     inkscape:zoom="0.49497475"
     inkscape:cx="430.963"
     inkscape:cy="659.43405"
     inkscape:document-units="mm"
     inkscape:current-layer="layer1"
     showgrid="false"
     inkscape:window-width="1920"
     inkscape:window-height="1017"
     inkscape:window-x="-8"
     inkscape:window-y="-8"
     inkscape:window-maximized="1" />
  <metadata
     id="metadata5">
    <rdf:RDF>
      <cc:Work
         rdf:about="">
        <dc:format>image/svg+xml</dc:format>
        <dc:type
           rdf:resource="http://purl.org/dc/dcmitype/StillImage" />
        <dc:title></dc:title>
      </cc:Work>
    </rdf:RDF>
  </metadata>
  <g
     inkscape:label="Layer 1"
     inkscape:groupmode="layer"
     id="layer1">
    <path
       style="fill:#b3b3b3;fill-opacity:1;stroke:none;stroke-width:0.16637392;stroke-opacity:1"
       id="path10"
       sodipodi:type="arc"
       sodipodi:cx="101.02789"
       sodipodi:cy="80.244415"
       sodipodi:rx="16.570711"
       sodipodi:ry="17.372519"
       sodipodi:start="2.9225538"
       sodipodi:end="2.9055194"
       sodipodi:open="true"
       d="M 84.85311,84.019317 A 16.570711,17.372519 0 0 1 97.358369,63.303212 16.570711,17.372519 0 0 1 117.17142,76.325223 16.570711,17.372519 0 0 1 104.83491,97.152238 16.570711,17.372519 0 0 1 84.916789,84.307615" />
    <path
       style="fill:#ffffff;fill-opacity:1;stroke:none;stroke-width:0.16478522;stroke-opacity:1"
       id="path12"
       sodipodi:type="arc"
       sodipodi:cx="100.89837"
       sodipodi:cy="80.070679"
       sodipodi:rx="12.568304"
       sodipodi:ry="13.334505"
       sodipodi:start="2.9225538"
       sodipodi:end="2.9055194"
       sodipodi:open="true"
       d="M 88.630362,82.968154 A 12.568304,13.334505 0 0 1 98.115163,67.067235 12.568304,13.334505 0 0 1 113.14267,77.062451 12.568304,13.334505 0 0 1 103.78586,93.0485 12.568304,13.334505 0 0 1 88.678661,83.189441" />
    <rect
       style="fill:#b3b3b3;fill-opacity:1;stroke:none;stroke-width:0.26681963;stroke-opacity:1"
       id="rect36"
       width="4.8108478"
       height="113.85683"
       x="98.889709"
       y="103.49686" />
    <path
       style="fill:#b3b3b3;fill-opacity:1;stroke:none;stroke-width:0.16637392;stroke-opacity:1"
       id="path10-7"
       sodipodi:type="arc"
       sodipodi:cx="101.56242"
       sodipodi:cy="239.26978"
       sodipodi:rx="16.570711"
       sodipodi:ry="17.372519"
       sodipodi:start="2.9225538"
       sodipodi:end="2.9055194"
       sodipodi:open="true"
       d="m 85.387641,243.04468 a 16.570711,17.372519 0 0 1 12.505258,-20.71611 16.570711,17.372519 0 0 1 19.813051,13.02201 16.570711,17.372519 0 0 1 -12.3365,20.82702 16.570711,17.372519 0 0 1 -19.91813,-12.84463" />
    <path
       style="fill:#ffffff;fill-opacity:1;stroke:none;stroke-width:0.16478522;stroke-opacity:1"
       id="path12-2"
       sodipodi:type="arc"
       sodipodi:cx="101.4329"
       sodipodi:cy="239.09604"
       sodipodi:rx="12.568304"
       sodipodi:ry="13.334505"
       sodipodi:start="2.9225538"
       sodipodi:end="2.9055194"
       sodipodi:open="true"
       d="m 89.164893,241.99351 a 12.568304,13.334505 0 0 1 9.484801,-15.90091 12.568304,13.334505 0 0 1 15.027506,9.99521 12.568304,13.334505 0 0 1 -9.35681,15.98605 12.568304,13.334505 0 0 1 -15.107199,-9.85906" />
  </g>
</svg>
